<?xml version="1.0" ?><!DOCTYPE svg  PUBLIC '-//W3C//DTD SVG 1.1//EN'  'http://www.w3.org/Graphics/SVG/1.1/DTD/svg11.dtd'><svg enable-background="new 0 0 512 512" height="512px" version="1.1" viewBox="0 0 512 512" width="512px" xml:space="preserve" xmlns="http://www.w3.org/2000/svg" xmlns:xlink="http://www.w3.org/1999/xlink"><g id="Layer_2"><path clip-rule="evenodd" d="M261.924,27.918C391.201,27.918,496,132.716,496,261.991   c0,129.274-104.799,234.07-234.076,234.07S27.848,391.266,27.848,261.991C27.848,132.716,132.646,27.918,261.924,27.918z" fill-rule="evenodd" opacity="0.15"/><radialGradient cx="256" cy="256" gradientUnits="userSpaceOnUse" id="SVGID_1_" r="211.6787"><stop offset="0" style="stop-color:#33495F"/><stop offset="0.6676" style="stop-color:#32485D"/><stop offset="0.9078" style="stop-color:#2E4256"/><stop offset="1" style="stop-color:#2B3E51"/></radialGradient><path clip-rule="evenodd" d="M256,44.324c116.907,0,211.682,94.771,211.682,211.677   S372.907,467.676,256,467.676c-116.909,0-211.682-94.77-211.682-211.675S139.091,44.324,256,44.324z" fill="url(#SVGID_1_)" fill-rule="evenodd"/><path clip-rule="evenodd" d="M268.013,55.668c-115.425,0-208.993,93.568-208.993,208.99   c0,67.952,32.452,128.308,82.685,166.477c-57.996-37.757-96.373-103.117-96.373-177.477c0-116.906,94.772-211.678,211.682-211.678   c74.365,0,139.729,38.38,177.486,96.378C396.329,88.124,335.972,55.668,268.013,55.668z" fill-rule="evenodd" opacity="0.3"/><g opacity="0.9"><linearGradient gradientTransform="matrix(1 0.0031 -0.0031 1 -71.2129 -56.1846)" gradientUnits="userSpaceOnUse" id="SVGID_2_" x1="326.8555" x2="517.5713" y1="97.2495" y2="427.579"><stop offset="0" style="stop-color:#0FEEFF;stop-opacity:0"/><stop offset="0.6373" style="stop-color:#08EDFF;stop-opacity:0.5736"/><stop offset="1" style="stop-color:#02EDFF;stop-opacity:0.9"/></linearGradient><path clip-rule="evenodd" d="M255.996,255.695l0.667-214.371    c116.269,1.772,209.799,96.742,209.437,213.349c-0.157,50.673-18.019,97.15-47.707,133.6L255.996,255.695z" fill="url(#SVGID_2_)" fill-rule="evenodd"/></g><linearGradient gradientUnits="userSpaceOnUse" id="SVGID_3_" x1="48.5527" x2="463.4463" y1="256" y2="256"><stop offset="0" style="stop-color:#89FFC5"/><stop offset="0.4797" style="stop-color:#4EFCF8"/><stop offset="0.5411" style="stop-color:#46FCFF"/><stop offset="1" style="stop-color:#39AEFF"/></linearGradient><line fill="none" stroke="url(#SVGID_3_)" stroke-miterlimit="10" stroke-opacity="0.2" stroke-width="2" x1="463.446" x2="48.553" y1="256" y2="256"/><linearGradient gradientUnits="userSpaceOnUse" id="SVGID_4_" x1="255" x2="257" y1="256" y2="256"><stop offset="0" style="stop-color:#89FFC5"/><stop offset="0.4797" style="stop-color:#4EFCF8"/><stop offset="0.5411" style="stop-color:#46FCFF"/><stop offset="1" style="stop-color:#39AEFF"/></linearGradient><line fill="none" stroke="url(#SVGID_4_)" stroke-miterlimit="10" stroke-opacity="0.2" stroke-width="2" x1="256" x2="256" y1="463.443" y2="48.557"/><linearGradient gradientUnits="userSpaceOnUse" id="SVGID_5_" x1="62.5" x2="64.5" y1="256" y2="256"><stop offset="0" style="stop-color:#89FFC5"/><stop offset="0.4797" style="stop-color:#4EFCF8"/><stop offset="0.5411" style="stop-color:#46FCFF"/><stop offset="1" style="stop-color:#39AEFF"/></linearGradient><line fill="none" opacity="0.9" stroke="url(#SVGID_5_)" stroke-miterlimit="10" stroke-opacity="0.2" stroke-width="2" x1="63.5" x2="63.5" y1="249.353" y2="262.646"/><linearGradient gradientUnits="userSpaceOnUse" id="SVGID_6_" x1="81.9443" x2="83.9443" y1="256" y2="256"><stop offset="0" style="stop-color:#89FFC5"/><stop offset="0.4797" style="stop-color:#4EFCF8"/><stop offset="0.5411" style="stop-color:#46FCFF"/><stop offset="1" style="stop-color:#39AEFF"/></linearGradient><line fill="none" opacity="0.9" stroke="url(#SVGID_6_)" stroke-miterlimit="10" stroke-opacity="0.2" stroke-width="2" x1="82.944" x2="82.944" y1="249.353" y2="262.646"/><linearGradient gradientUnits="userSpaceOnUse" id="SVGID_7_" x1="101.3887" x2="103.3887" y1="256" y2="256"><stop offset="0" style="stop-color:#89FFC5"/><stop offset="0.4797" style="stop-color:#4EFCF8"/><stop offset="0.5411" style="stop-color:#46FCFF"/><stop offset="1" style="stop-color:#39AEFF"/></linearGradient><line fill="none" opacity="0.9" stroke="url(#SVGID_7_)" stroke-miterlimit="10" stroke-opacity="0.2" stroke-width="2" x1="102.389" x2="102.389" y1="249.353" y2="262.646"/><linearGradient gradientUnits="userSpaceOnUse" id="SVGID_8_" x1="120.833" x2="122.833" y1="256" y2="256"><stop offset="0" style="stop-color:#89FFC5"/><stop offset="0.4797" style="stop-color:#4EFCF8"/><stop offset="0.5411" style="stop-color:#46FCFF"/><stop offset="1" style="stop-color:#39AEFF"/></linearGradient><line fill="none" opacity="0.9" stroke="url(#SVGID_8_)" stroke-miterlimit="10" stroke-opacity="0.2" stroke-width="2" x1="121.833" x2="121.833" y1="249.353" y2="262.646"/><linearGradient gradientUnits="userSpaceOnUse" id="SVGID_9_" x1="140.2773" x2="142.2773" y1="256" y2="256"><stop offset="0" style="stop-color:#89FFC5"/><stop offset="0.4797" style="stop-color:#4EFCF8"/><stop offset="0.5411" style="stop-color:#46FCFF"/><stop offset="1" style="stop-color:#39AEFF"/></linearGradient><line fill="none" opacity="0.9" stroke="url(#SVGID_9_)" stroke-miterlimit="10" stroke-opacity="0.2" stroke-width="2" x1="141.277" x2="141.277" y1="249.353" y2="262.646"/><linearGradient gradientUnits="userSpaceOnUse" id="SVGID_10_" x1="159.7227" x2="161.7227" y1="256" y2="256"><stop offset="0" style="stop-color:#89FFC5"/><stop offset="0.4797" style="stop-color:#4EFCF8"/><stop offset="0.5411" style="stop-color:#46FCFF"/><stop offset="1" style="stop-color:#39AEFF"/></linearGradient><line fill="none" opacity="0.9" stroke="url(#SVGID_10_)" stroke-miterlimit="10" stroke-opacity="0.2" stroke-width="2" x1="160.723" x2="160.723" y1="249.353" y2="262.646"/><linearGradient gradientUnits="userSpaceOnUse" id="SVGID_11_" x1="179.167" x2="181.167" y1="256" y2="256"><stop offset="0" style="stop-color:#89FFC5"/><stop offset="0.4797" style="stop-color:#4EFCF8"/><stop offset="0.5411" style="stop-color:#46FCFF"/><stop offset="1" style="stop-color:#39AEFF"/></linearGradient><line fill="none" opacity="0.9" stroke="url(#SVGID_11_)" stroke-miterlimit="10" stroke-opacity="0.2" stroke-width="2" x1="180.167" x2="180.167" y1="249.353" y2="262.646"/><linearGradient gradientUnits="userSpaceOnUse" id="SVGID_12_" x1="198.6113" x2="200.6113" y1="256" y2="256"><stop offset="0" style="stop-color:#89FFC5"/><stop offset="0.4797" style="stop-color:#4EFCF8"/><stop offset="0.5411" style="stop-color:#46FCFF"/><stop offset="1" style="stop-color:#39AEFF"/></linearGradient><line fill="none" opacity="0.9" stroke="url(#SVGID_12_)" stroke-miterlimit="10" stroke-opacity="0.2" stroke-width="2" x1="199.611" x2="199.611" y1="249.353" y2="262.646"/><linearGradient gradientUnits="userSpaceOnUse" id="SVGID_13_" x1="218.0557" x2="220.0557" y1="256" y2="256"><stop offset="0" style="stop-color:#89FFC5"/><stop offset="0.4797" style="stop-color:#4EFCF8"/><stop offset="0.5411" style="stop-color:#46FCFF"/><stop offset="1" style="stop-color:#39AEFF"/></linearGradient><line fill="none" opacity="0.9" stroke="url(#SVGID_13_)" stroke-miterlimit="10" stroke-opacity="0.2" stroke-width="2" x1="219.056" x2="219.056" y1="249.353" y2="262.646"/><linearGradient gradientUnits="userSpaceOnUse" id="SVGID_14_" x1="237.5" x2="239.5" y1="256" y2="256"><stop offset="0" style="stop-color:#89FFC5"/><stop offset="0.4797" style="stop-color:#4EFCF8"/><stop offset="0.5411" style="stop-color:#46FCFF"/><stop offset="1" style="stop-color:#39AEFF"/></linearGradient><line fill="none" opacity="0.9" stroke="url(#SVGID_14_)" stroke-miterlimit="10" stroke-opacity="0.2" stroke-width="2" x1="238.5" x2="238.5" y1="249.353" y2="262.646"/></g><g id="Layer_3"><g><g><path clip-rule="evenodd" d="M256,21.928c-129.277,0-234.076,104.798-234.076,234.073     c0,129.274,104.799,234.071,234.076,234.071s234.076-104.797,234.076-234.071C490.076,126.726,385.277,21.928,256,21.928z      M256,463.443c-114.571,0-207.447-92.875-207.447-207.443c0-114.567,92.876-207.443,207.447-207.443     c114.569,0,207.446,92.876,207.446,207.443C463.446,370.568,370.569,463.443,256,463.443z" fill="#FFFFFF" fill-rule="evenodd"/></g><g><path d="M256,21.928c-129.277,0-234.076,104.798-234.076,234.073     c0,129.274,104.799,234.071,234.076,234.071s234.076-104.797,234.076-234.071C490.076,126.726,385.277,21.928,256,21.928z      M256,463.443c-114.571,0-207.447-92.875-207.447-207.443c0-114.567,92.876-207.443,207.447-207.443     c114.569,0,207.446,92.876,207.446,207.443C463.446,370.568,370.569,463.443,256,463.443z" fill="none" stroke="#EAEAEA" stroke-miterlimit="10"/></g></g><g opacity="0.5"><g><linearGradient gradientTransform="matrix(0.4975 -0.8675 0.8675 0.4975 -75.3105 358.844)" gradientUnits="userSpaceOnUse" id="SVGID_15_" x1="128.8159" x2="378.8885" y1="236.2314" y2="236.2314"><stop offset="0" style="stop-color:#89FFC5"/><stop offset="0.4797" style="stop-color:#4EFCF8"/><stop offset="0.5411" style="stop-color:#46FCFF"/><stop offset="1" style="stop-color:#39AEFF"/></linearGradient><path d="M346.456,98.28C259.35,48.322,148.237,78.436,98.279,165.544     C48.321,252.65,78.437,363.763,165.543,413.72c87.106,49.958,198.22,19.844,248.177-67.263     C463.679,259.35,433.563,148.238,346.456,98.28z M411.373,345.109c-49.215,85.811-158.674,115.479-244.484,66.264     C81.079,362.159,51.412,252.7,100.627,166.889C149.841,81.079,259.3,51.412,345.11,100.626S460.588,259.299,411.373,345.109z" fill="url(#SVGID_15_)"/></g></g><g opacity="0.5"><g><linearGradient gradientTransform="matrix(0.4975 -0.8675 0.8675 0.4975 -75.3105 358.844)" gradientUnits="userSpaceOnUse" id="SVGID_16_" x1="166.6113" x2="341.2086" y1="236.2324" y2="236.2324"><stop offset="0" style="stop-color:#89FFC5"/><stop offset="0.4797" style="stop-color:#4EFCF8"/><stop offset="0.5411" style="stop-color:#46FCFF"/><stop offset="1" style="stop-color:#39AEFF"/></linearGradient><path d="M319.156,145.882c-60.817-34.879-138.394-13.855-173.274,46.963     c-34.879,60.815-13.853,138.393,46.963,173.273c60.817,34.88,138.394,13.854,173.273-46.961     C400.998,258.339,379.972,180.762,319.156,145.882z M363.719,317.778c-34.119,59.491-110.007,80.061-169.497,45.94     c-59.491-34.119-80.058-110.007-45.938-169.498c34.12-59.491,110.005-80.058,169.497-45.939     C377.271,182.402,397.838,258.288,363.719,317.778z" fill="url(#SVGID_16_)"/></g></g><g opacity="0.5"><g><linearGradient gradientTransform="matrix(0.4975 -0.8675 0.8675 0.4975 -75.3105 358.844)" gradientUnits="userSpaceOnUse" id="SVGID_17_" x1="205.6113" x2="302.3277" y1="236.2314" y2="236.2314"><stop offset="0" style="stop-color:#89FFC5"/><stop offset="0.4797" style="stop-color:#4EFCF8"/><stop offset="0.5411" style="stop-color:#46FCFF"/><stop offset="1" style="stop-color:#39AEFF"/></linearGradient><path d="M290.985,195.002c-33.689-19.322-76.663-7.675-95.985,26.014     c-19.321,33.688-7.673,76.661,26.015,95.982c33.688,19.321,76.662,7.676,95.983-26.013     C336.321,257.295,324.674,214.323,290.985,195.002z M314.987,289.829c-18.684,32.578-60.24,43.841-92.818,25.157     c-32.577-18.684-43.841-60.24-25.156-92.817c18.684-32.578,60.241-43.84,92.818-25.157     C322.409,215.697,333.672,257.252,314.987,289.829z" fill="url(#SVGID_17_)"/></g></g><linearGradient gradientTransform="matrix(0.4948 0.869 -0.869 0.4948 277.8503 -168.3369)" gradientUnits="userSpaceOnUse" id="SVGID_18_" x1="356.5615" x2="556.8506" y1="190.3232" y2="190.3232"><stop offset="0" style="stop-color:#8AFF9C"/><stop offset="0.5942" style="stop-color:#8CFF9D;stop-opacity:0.4058"/><stop offset="0.808" style="stop-color:#93FFA2;stop-opacity:0.192"/><stop offset="0.9601" style="stop-color:#9EFFAB;stop-opacity:0.0399"/><stop offset="1" style="stop-color:#A3FFAE;stop-opacity:0"/></linearGradient><line fill="none" stroke="url(#SVGID_18_)" stroke-linecap="round" stroke-linejoin="round" stroke-miterlimit="10" stroke-width="3" x1="256.302" x2="420.579" y1="255.969" y2="389.46"/><radialGradient cx="239.7822" cy="259.0205" gradientTransform="matrix(0.9968 -0.0186 0.0178 0.9195 11.6403 18.0216)" gradientUnits="userSpaceOnUse" id="SVGID_19_" r="160.7241"><stop offset="0" style="stop-color:#FFFFFF;stop-opacity:0.1"/><stop offset="1" style="stop-color:#FFFFFF;stop-opacity:0.2"/></radialGradient><path clip-rule="evenodd" d="M106.26,162.106   c0.038-47.932,68.392-102.529,147.215-103.332c78.824-0.801,150.94,51.706,152.23,102.967c1.51,59.906-61.462,91.717-152.5,91.83   C174.378,253.667,106.212,222.03,106.26,162.106z" fill="url(#SVGID_19_)" fill-rule="evenodd" opacity="0.2"/><radialGradient cx="343" cy="213.6592" gradientUnits="userSpaceOnUse" id="SVGID_20_" r="13"><stop offset="0" style="stop-color:#0FEEFF"/><stop offset="1" style="stop-color:#02EDFF;stop-opacity:0"/></radialGradient><path d="M330,213.659c0-7.176,5.824-13,13-13c7.183,0,13,5.824,13,13s-5.817,13-13,13   C335.824,226.659,330,220.835,330,213.659z" fill="url(#SVGID_20_)"/><circle cx="343" cy="213.659" fill="#83F4FF" r="7.347"/><radialGradient cx="156" cy="137.6592" gradientUnits="userSpaceOnUse" id="SVGID_21_" r="10"><stop offset="0" style="stop-color:#0FEEFF"/><stop offset="1" style="stop-color:#02EDFF;stop-opacity:0"/></radialGradient><circle cx="156" cy="137.659" fill="url(#SVGID_21_)" opacity="0.6" r="10"/><linearGradient gradientUnits="userSpaceOnUse" id="SVGID_22_" x1="150.3525" x2="161.6475" y1="137.6592" y2="137.6592"><stop offset="0" style="stop-color:#0FEEFF"/><stop offset="0.6373" style="stop-color:#08EDFF;stop-opacity:0.9363"/><stop offset="1" style="stop-color:#02EDFF;stop-opacity:0.9"/></linearGradient><path d="M150.353,137.659c0-3.122,2.525-5.652,5.647-5.652s5.647,2.53,5.647,5.652   s-2.525,5.652-5.647,5.652S150.353,140.781,150.353,137.659z" fill="url(#SVGID_22_)" opacity="0.7"/><radialGradient cx="316" cy="400.6592" gradientUnits="userSpaceOnUse" id="SVGID_23_" r="7.5"><stop offset="0" style="stop-color:#0FEEFF"/><stop offset="1" style="stop-color:#02EDFF;stop-opacity:0"/></radialGradient><circle cx="316" cy="400.659" fill="url(#SVGID_23_)" opacity="0.6" r="7.5"/><linearGradient gradientUnits="userSpaceOnUse" id="SVGID_24_" x1="311.7646" x2="320.2354" y1="400.6592" y2="400.6592"><stop offset="0" style="stop-color:#0FEEFF"/><stop offset="0.6373" style="stop-color:#08EDFF;stop-opacity:0.9363"/><stop offset="1" style="stop-color:#02EDFF;stop-opacity:0.9"/></linearGradient><circle cx="316" cy="400.659" fill="url(#SVGID_24_)" opacity="0.4" r="4.235"/><path clip-rule="evenodd" d="M399.482,146.759   C396.961,148.855,396,171.92,396,171.92s-1.789-23.244-4.135-25.122c-3.883-3.105-17.77-3.579-17.77-3.579   s14.413-0.574,18.238-3.902c2.08-1.808,3.666-29.615,3.666-29.615s1.82,26.87,3.639,29.784c1.82,2.914,25.388,3.733,25.388,3.733   S402,144.662,399.482,146.759z" fill="#FFFFFF" fill-rule="evenodd" opacity="0.7"/></g></svg>