<?xml version="1.0" ?><!DOCTYPE svg  PUBLIC '-//W3C//DTD SVG 1.1//EN'  'http://www.w3.org/Graphics/SVG/1.1/DTD/svg11.dtd'><svg enable-background="new 0 0 256 256" height="256px" id="Layer_1" version="1.1" viewBox="0 0 256 256" width="256px" xml:space="preserve" xmlns="http://www.w3.org/2000/svg" xmlns:xlink="http://www.w3.org/1999/xlink"><g><g><path d="M196.682,119.185c-2.331-2.568-5.581-4.01-9.653-4.18l-3.069,0.044     c-0.666-21.017-4.764-48.258-19.736-65.282c-9.322-10.602-21.697-15.979-37.164-15.979h-0.003     c-15.287,0.094-27.376,5.564-35.938,16.26C77.124,67.536,75.612,95.524,76.93,116.51l-5.368,0.075     c-2.413,0.031-5.909,0.38-8.44,3.019c-2.803,2.921-3.279,7.293-3.121,12.951c0.249,8.998,4.679,87.768,4.872,91.117l0.239,4.318     h135.481l-0.003-97.048C200.626,130.224,200.84,123.758,196.682,119.185z M104.293,116.139     c-0.879-15.819,0.177-35.004,8.584-45.32c3.849-4.725,8.929-7.022,15.664-7.022c6.758,0.031,12.158,2.458,16.503,7.424     c8.909,10.182,11.591,28.563,12.083,44.194L104.293,116.139z" fill="#C3C6C9"/><path d="M80.471,137.691c0,0-22.828-104.712,42.033-105.109c64.862-0.398,51.155,106.1,51.155,106.1     l-17.684-0.795c0,0,10.929-84.244-31.99-84.442c-42.915-0.199-25.635,83.451-25.635,83.451L80.471,137.691z" fill="#C3C6C9"/><path d="M81.714,125.11c0,0-9.178-49.231,6.545-71.441c15.726-22.209,36.282-20.084,39.204-19.598     c-3.02-0.192-21.031-0.193-32.623,21.081c-13.641,25.031-5.433,69.958-5.433,69.958H81.714z" fill="#EEEFEF"/><path d="M59.994,126.651c-0.249-9.034,1.43-11.201,7.053-11.272c4.679-0.062,87.736-1.201,115.466-1.58     c9.499,0.411,8.932,11.125,8.932,11.125v92.716H64.86C64.86,217.639,60.247,135.686,59.994,126.651z" fill="#FBB220"/><path d="M134.204,170.519c4.659-2.175,7.889-6.614,7.889-11.803c0-5.9-4.158-10.835-9.866-12.549     c1.656-8.315,3.554-16.93,5.715-25.545c-5.876,0-58.914-0.232-66.193,0.607c-7.279,0.839-6.574,13.291-6.574,13.291l3.361,77.67     h53.874c0,0,0.551-6.171,1.807-16.224h17.877L134.204,170.519z" fill="#FFD65F"/><path d="M138.726,158.44c0-5.878-4.761-10.638-10.64-10.638c-5.873,0-10.631,4.76-10.631,10.638     c0,4.743,3.125,8.717,7.417,10.084l-8.673,25.125h20.943l-7.453-24.733C134.798,168.135,138.726,163.763,138.726,158.44z" fill="#424142"/><g><path d="M123.987,53.445c-28.534-0.132-30.452,36.774-28.537,61.542c18.392-0.25,42.358-0.576,61.76-0.839      C157.026,89.214,151.891,53.574,123.987,53.445z M108.3,65.04c3.85-4.725,8.929-7.023,15.664-7.023      c6.758,0.031,12.159,2.461,16.503,7.424c8.909,10.182,11.591,28.564,12.083,44.194l-52.834,0.724      C98.834,94.542,99.893,75.357,108.3,65.04z" fill="#424142"/><path d="M192.104,113.405c-2.331-2.567-5.581-4.01-9.653-4.18l-3.069,0.044      c-0.665-21.016-4.764-48.258-19.736-65.281c-9.322-10.603-21.697-15.979-37.164-15.979h-0.003      c-15.287,0.094-27.376,5.564-35.938,16.26C72.546,61.757,71.034,89.745,72.353,110.73l-5.368,0.076      c-2.413,0.031-5.909,0.38-8.44,3.019c-2.807,2.92-3.279,7.292-3.122,12.95c0.249,8.999,4.679,87.769,4.873,91.117l0.239,4.319      h135.481l-0.003-97.048C196.049,124.445,196.262,117.979,192.104,113.405z M191.445,124.923v92.716H64.86      c0,0-4.613-81.953-4.866-90.988c-0.249-9.034,1.43-11.201,7.053-11.272c0.889-0.013,4.627-0.062,10.273-0.143      c-2.659-30.788-0.325-82.375,45.184-82.654c44.552-0.273,52.037,49.883,52.352,81.324c2.85-0.045,5.446-0.08,7.657-0.107      C192.013,114.209,191.445,124.923,191.445,124.923z" fill="#424142"/></g></g></g></svg>