<?xml version="1.0" ?><svg id="katman_1" style="enable-background:new 0 0 512 512;" version="1.1" viewBox="0 0 512 512" xml:space="preserve" xmlns="http://www.w3.org/2000/svg" xmlns:xlink="http://www.w3.org/1999/xlink"><style type="text/css">
	.st0{fill:#365E67;}
	.st1{fill:#30B3A0;}
	.st2{fill:#179889;}
</style><g><path class="st0" d="M42.1,99l7.8-2.1l-8-29.8l-7.6,2.1c-0.7,0.2-1.4,0.1-2-0.3c-0.6-0.4-1-0.9-1.2-1.6s-0.1-1.4,0.3-2   c0.4-0.6,0.9-1,1.6-1.2l12.7-3.4L55,95.5l5.1-1.4l-2.8-10.5c-0.2-0.7-0.1-1.3,0.3-2c0.4-0.6,0.9-1,1.6-1.2c0.7-0.2,1.4-0.1,2,0.3   c0.6,0.4,1,0.9,1.2,1.6l3.5,13.1c0.2,0.7,0.1,1.4-0.3,2c-0.4,0.6-0.9,1-1.6,1.2L43.5,104c-0.7,0.2-1.4,0.1-2-0.3   c-0.6-0.4-1-0.9-1.2-1.6c-0.2-0.7-0.1-1.3,0.3-1.9C40.9,99.6,41.4,99.2,42.1,99z"/><path class="st0" d="M163.4,89.4l7.8-2.1l-8-29.8l-7.6,2.1c-0.7,0.2-1.4,0.1-2-0.3c-0.6-0.4-1-0.9-1.2-1.6c-0.2-0.7-0.1-1.4,0.3-2   c0.4-0.6,0.9-1,1.6-1.2l12.7-3.4l9.4,34.9l5.1-1.4L178.5,74c-0.2-0.7-0.1-1.3,0.3-2c0.4-0.6,0.9-1,1.6-1.2c0.7-0.2,1.4-0.1,2,0.3   c0.6,0.4,1,0.9,1.2,1.6l3.5,13.1c0.2,0.7,0.1,1.4-0.3,2c-0.4,0.6-0.9,1-1.6,1.2l-20.4,5.5c-0.7,0.2-1.4,0.1-2-0.3   c-0.6-0.4-1-0.9-1.2-1.6c-0.2-0.7-0.1-1.3,0.3-1.9C162.2,90,162.7,89.6,163.4,89.4z"/><path class="st0" d="M108.3,113.7l-8.2-30.3c-0.4-1.3-0.2-2.6,0.5-3.8c0.7-1.2,1.7-2,3-2.4l15.8-4.3c1.3-0.4,2.6-0.2,3.8,0.5   c1.2,0.7,2,1.7,2.4,3l8.2,30.3c0.4,1.3,0.2,2.6-0.5,3.8c-0.7,1.2-1.7,2-3.1,2.4l-15.7,4.2c-1.4,0.4-2.6,0.2-3.8-0.5   C109.4,116,108.7,115,108.3,113.7z M128.7,108l-8-29.8l-15.4,4.2l8,29.8L128.7,108z"/><path class="st0" d="M332.2,87.9L324,57.6c-0.4-1.3-0.2-2.6,0.5-3.8c0.7-1.2,1.7-2,3-2.4l15.8-4.3c1.3-0.4,2.6-0.2,3.8,0.5   c1.2,0.7,2,1.7,2.4,3l8.2,30.3c0.4,1.3,0.2,2.6-0.5,3.8c-0.7,1.2-1.7,2-3.1,2.4l-15.7,4.2c-1.4,0.4-2.6,0.2-3.8-0.5   C333.3,90.2,332.6,89.2,332.2,87.9z M352.6,82.2l-8-29.8l-15.4,4.2l8,29.8L352.6,82.2z"/><path class="st0" d="M17.2,185.4l7.8-2.1l-8-29.8l-7.6,2.1c-0.7,0.2-1.4,0.1-2-0.3c-0.6-0.4-1-0.9-1.2-1.6c-0.2-0.7-0.1-1.4,0.3-2   c0.4-0.6,0.9-1,1.6-1.2l12.7-3.4l9.4,34.9l5.1-1.4L32.3,170c-0.2-0.7-0.1-1.3,0.3-2c0.4-0.6,0.9-1,1.6-1.2c0.7-0.2,1.4-0.1,2,0.3   c0.6,0.4,1,0.9,1.2,1.6l3.5,13.1c0.2,0.7,0.1,1.4-0.3,2c-0.4,0.6-0.9,1-1.6,1.2l-20.4,5.5c-0.7,0.2-1.4,0.1-2-0.3   c-0.6-0.4-1-0.9-1.2-1.6c-0.2-0.7-0.1-1.3,0.3-1.9C16,186,16.5,185.6,17.2,185.4z"/><path class="st0" d="M396.5,120.7l7.8-2.1l-8-29.8l-7.6,2.1c-0.7,0.2-1.4,0.1-2-0.3c-0.6-0.4-1-0.9-1.2-1.6c-0.2-0.7-0.1-1.4,0.3-2   c0.4-0.6,0.9-1,1.6-1.2l12.7-3.4l9.4,34.9l5.1-1.4l-2.8-10.5c-0.2-0.7-0.1-1.3,0.3-2c0.4-0.6,0.9-1,1.6-1.2c0.7-0.2,1.4-0.1,2,0.3   c0.6,0.4,1,0.9,1.2,1.6l3.5,13.1c0.2,0.7,0.1,1.4-0.3,2c-0.4,0.6-0.9,1-1.6,1.2l-20.4,5.5c-0.7,0.2-1.4,0.1-2-0.3   c-0.6-0.4-1-0.9-1.2-1.6c-0.2-0.7-0.1-1.3,0.3-1.9C395.3,121.3,395.8,120.9,396.5,120.7z"/><path class="st0" d="M239.2,63.6l7.8-2.1l-8-29.8l-7.6,2.1c-0.7,0.2-1.4,0.1-2-0.3c-0.6-0.4-1-0.9-1.2-1.6c-0.2-0.7-0.1-1.4,0.3-2   c0.4-0.6,0.9-1,1.6-1.2l12.7-3.4l9.4,34.9l5.1-1.4l-2.8-10.5c-0.2-0.7-0.1-1.3,0.3-2c0.4-0.6,0.9-1,1.6-1.2c0.7-0.2,1.4-0.1,2,0.3   c0.6,0.4,1,0.9,1.2,1.6l3.5,13.1c0.2,0.7,0.1,1.4-0.3,2c-0.4,0.6-0.9,1-1.6,1.2l-20.4,5.5c-0.7,0.2-1.4,0.1-2-0.3   c-0.6-0.4-1-0.9-1.2-1.6c-0.2-0.7-0.1-1.3,0.3-1.9C237.9,64.1,238.5,63.7,239.2,63.6z"/><path class="st0" d="M284.1,187.1l7.8-2.1l-8-29.8l-7.6,2.1c-0.7,0.2-1.4,0.1-2-0.3c-0.6-0.4-1-0.9-1.2-1.6s-0.1-1.4,0.3-2   c0.4-0.6,0.9-1,1.6-1.2l12.7-3.4l9.4,34.9l5.1-1.4l-2.8-10.5c-0.2-0.7-0.1-1.3,0.3-2c0.4-0.6,0.9-1,1.6-1.2c0.7-0.2,1.4-0.1,2,0.3   c0.6,0.4,1,0.9,1.2,1.6l3.5,13.1c0.2,0.7,0.1,1.4-0.3,2c-0.4,0.6-0.9,1-1.6,1.2l-20.4,5.5c-0.7,0.2-1.4,0.1-2-0.3   c-0.6-0.4-1-0.9-1.2-1.6c-0.2-0.7-0.1-1.3,0.3-1.9C282.9,187.7,283.4,187.3,284.1,187.1z"/><path class="st0" d="M458.9,94.7l7.8-2.1l-8-29.8l-7.6,2.1c-0.7,0.2-1.4,0.1-2-0.3c-0.6-0.4-1-0.9-1.2-1.6c-0.2-0.7-0.1-1.4,0.3-2   c0.4-0.6,0.9-1,1.6-1.2l12.7-3.4l9.4,34.9l5.1-1.4l-2.8-10.5c-0.2-0.7-0.1-1.3,0.3-2c0.4-0.6,0.9-1,1.6-1.2c0.7-0.2,1.4-0.1,2,0.3   c0.6,0.4,1,0.9,1.2,1.6l3.5,13.1c0.2,0.7,0.1,1.4-0.3,2c-0.4,0.6-0.9,1-1.6,1.2l-20.4,5.5c-0.7,0.2-1.4,0.1-2-0.3   c-0.6-0.4-1-0.9-1.2-1.6c-0.2-0.7-0.1-1.3,0.3-1.9C457.7,95.3,458.2,94.9,458.9,94.7z"/><path class="st0" d="M95.9,207.2l7.8-2.1l-8-29.8l-7.6,2.1c-0.7,0.2-1.4,0.1-2-0.3c-0.6-0.4-1-0.9-1.2-1.6s-0.1-1.4,0.3-2   c0.4-0.6,0.9-1,1.6-1.2l12.7-3.4l9.4,34.9l5.1-1.4l-2.8-10.5c-0.2-0.7-0.1-1.3,0.3-2c0.4-0.6,0.9-1,1.6-1.2c0.7-0.2,1.4-0.1,2,0.3   c0.6,0.4,1,0.9,1.2,1.6l3.5,13.1c0.2,0.7,0.1,1.4-0.3,2c-0.4,0.6-0.9,1-1.6,1.2l-20.4,5.5c-0.7,0.2-1.4,0.1-2-0.3   c-0.6-0.4-1-0.9-1.2-1.6c-0.2-0.7-0.1-1.3,0.3-1.9C94.6,207.8,95.2,207.4,95.9,207.2z"/><path class="st0" d="M439,166.8l-8.2-30.3c-0.4-1.3-0.2-2.6,0.5-3.8c0.7-1.2,1.7-2,3-2.4l15.8-4.3c1.3-0.4,2.6-0.2,3.8,0.5   c1.2,0.7,2,1.7,2.4,3l8.2,30.3c0.4,1.3,0.2,2.6-0.5,3.8c-0.7,1.2-1.7,2-3.1,2.4l-15.7,4.2c-1.4,0.4-2.6,0.2-3.8-0.5   C440.1,169.1,439.4,168.1,439,166.8z M459.4,161.1l-8-29.8l-15.4,4.2l8,29.8L459.4,161.1z"/><path class="st0" d="M17.2,334.7l7.8-2.1l-8-29.8l-7.6,2.1c-0.7,0.2-1.4,0.1-2-0.3c-0.6-0.4-1-0.9-1.2-1.6c-0.2-0.7-0.1-1.4,0.3-2   c0.4-0.6,0.9-1,1.6-1.2l12.7-3.4l9.4,34.9l5.1-1.4l-2.8-10.5c-0.2-0.7-0.1-1.3,0.3-2c0.4-0.6,0.9-1,1.6-1.2c0.7-0.2,1.4-0.1,2,0.3   c0.6,0.4,1,0.9,1.2,1.6l3.5,13.1c0.2,0.7,0.1,1.4-0.3,2c-0.4,0.6-0.9,1-1.6,1.2l-20.4,5.5c-0.7,0.2-1.4,0.1-2-0.3   c-0.6-0.4-1-0.9-1.2-1.6c-0.2-0.7-0.1-1.3,0.3-1.9C16,335.3,16.5,334.9,17.2,334.7z"/><path class="st0" d="M416.8,241.8l-8.2-30.3c-0.4-1.3-0.2-2.6,0.5-3.8c0.7-1.2,1.7-2,3-2.4l15.8-4.3c1.3-0.4,2.6-0.2,3.8,0.5   c1.2,0.7,2,1.7,2.4,3l8.2,30.3c0.4,1.3,0.2,2.6-0.5,3.8c-0.7,1.2-1.7,2-3.1,2.4l-15.7,4.2c-1.4,0.4-2.6,0.2-3.8-0.5   C418,244.2,417.2,243.2,416.8,241.8z M437.3,236.1l-8-29.8l-15.4,4.2l8,29.8L437.3,236.1z"/><path class="st0" d="M480.3,241.8l-8.2-30.3c-0.4-1.3-0.2-2.6,0.5-3.8c0.7-1.2,1.7-2,3-2.4l15.8-4.3c1.3-0.4,2.6-0.2,3.8,0.5   c1.2,0.7,2,1.7,2.4,3l8.2,30.3c0.4,1.3,0.2,2.6-0.5,3.8c-0.7,1.2-1.7,2-3.1,2.4l-15.7,4.2c-1.4,0.4-2.6,0.2-3.8-0.5   C481.5,244.2,480.7,243.2,480.3,241.8z M500.8,236.1l-8-29.8l-15.4,4.2l8,29.8L500.8,236.1z"/><path class="st0" d="M57.2,273L49,242.7c-0.4-1.3-0.2-2.6,0.5-3.8c0.7-1.2,1.7-2,3-2.4l15.8-4.3c1.3-0.4,2.6-0.2,3.8,0.5   c1.2,0.7,2,1.7,2.4,3l8.2,30.3c0.4,1.3,0.2,2.6-0.5,3.8c-0.7,1.2-1.7,2-3.1,2.4l-15.7,4.2c-1.4,0.4-2.6,0.2-3.8-0.5   C58.3,275.4,57.6,274.3,57.2,273z M77.6,267.3l-8-29.8l-15.4,4.2l8,29.8L77.6,267.3z"/><path class="st0" d="M219.3,219.5l-8.2-30.3c-0.4-1.3-0.2-2.6,0.5-3.8c0.7-1.2,1.7-2,3-2.4l15.8-4.3c1.3-0.4,2.6-0.2,3.8,0.5   c1.2,0.7,2,1.7,2.4,3l8.2,30.3c0.4,1.3,0.2,2.6-0.5,3.8c-0.7,1.2-1.7,2-3.1,2.4l-15.7,4.2c-1.4,0.4-2.6,0.2-3.8-0.5   C220.4,221.9,219.6,220.8,219.3,219.5z M239.7,213.8l-8-29.8l-15.4,4.2l8,29.8L239.7,213.8z"/><path class="st0" d="M458.9,292.8l7.8-2.1l-8-29.8l-7.6,2.1c-0.7,0.2-1.4,0.1-2-0.3c-0.6-0.4-1-0.9-1.2-1.6c-0.2-0.7-0.1-1.4,0.3-2   c0.4-0.6,0.9-1,1.6-1.2l12.7-3.4l9.4,34.9l5.1-1.4l-2.8-10.5c-0.2-0.7-0.1-1.3,0.3-2c0.4-0.6,0.9-1,1.6-1.2c0.7-0.2,1.4-0.1,2,0.3   c0.6,0.4,1,0.9,1.2,1.6l3.5,13.1c0.2,0.7,0.1,1.4-0.3,2c-0.4,0.6-0.9,1-1.6,1.2l-20.4,5.5c-0.7,0.2-1.4,0.1-2-0.3   c-0.6-0.4-1-0.9-1.2-1.6c-0.2-0.7-0.1-1.3,0.3-1.9C457.7,293.4,458.2,293,458.9,292.8z"/><path class="st0" d="M64.7,390.7l7.8-2.1l-8-29.8l-7.6,2.1c-0.7,0.2-1.4,0.1-2-0.3c-0.6-0.4-1-0.9-1.2-1.6c-0.2-0.7-0.1-1.4,0.3-2   c0.4-0.6,0.9-1,1.6-1.2l12.7-3.4l9.4,34.9l5.1-1.4l-2.8-10.5c-0.2-0.7-0.1-1.3,0.3-2c0.4-0.6,0.9-1,1.6-1.2c0.7-0.2,1.4-0.1,2,0.3   c0.6,0.4,1,0.9,1.2,1.6l3.5,13.1c0.2,0.7,0.1,1.4-0.3,2c-0.4,0.6-0.9,1-1.6,1.2l-20.4,5.5c-0.7,0.2-1.4,0.1-2-0.3   c-0.6-0.4-1-0.9-1.2-1.6c-0.2-0.7-0.1-1.3,0.3-1.9C63.5,391.3,64,390.9,64.7,390.7z"/><path class="st0" d="M466.8,365.5l7.8-2.1l-8-29.8l-7.6,2.1c-0.7,0.2-1.4,0.1-2-0.3c-0.6-0.4-1-0.9-1.2-1.6c-0.2-0.7-0.1-1.4,0.3-2   c0.4-0.6,0.9-1,1.6-1.2l12.7-3.4l9.4,34.9l5.1-1.4l-2.8-10.5c-0.2-0.7-0.1-1.3,0.3-2c0.4-0.6,0.9-1,1.6-1.2c0.7-0.2,1.4-0.1,2,0.3   c0.6,0.4,1,0.9,1.2,1.6l3.5,13.1c0.2,0.7,0.1,1.4-0.3,2c-0.4,0.6-0.9,1-1.6,1.2l-20.4,5.5c-0.7,0.2-1.4,0.1-2-0.3   c-0.6-0.4-1-0.9-1.2-1.6c-0.2-0.7-0.1-1.3,0.3-1.9C465.6,366.1,466.1,365.7,466.8,365.5z"/><path class="st0" d="M448.6,435.1l-8.2-30.3c-0.4-1.3-0.2-2.6,0.5-3.8s1.7-2,3-2.4l15.8-4.3c1.3-0.4,2.6-0.2,3.8,0.5   c1.2,0.7,2,1.7,2.4,3l8.2,30.3c0.4,1.3,0.2,2.6-0.5,3.8c-0.7,1.2-1.7,2-3.1,2.4l-15.7,4.2c-1.4,0.4-2.6,0.2-3.8-0.5   C449.7,437.5,448.9,436.5,448.6,435.1z M469,429.4l-8-29.8l-15.4,4.2l8,29.8L469,429.4z"/></g><g><g><path class="st1" d="M419.2,318.8v-38.1c0-20.3-17.5-36.8-39-36.8H146.3c-21.5,0-39,16.5-39,36.8V450c0,20.3,17.4,36.8,39,36.8    h233.9c21.5,0,39-16.5,39-36.8v-11.6h-51v-20.4h51v-28h-51v-20.4h51v-30.5h-51v-20.4H419.2z M276.9,385.1v25.5    c0,6-6.1,10.8-13.6,10.8c-7.5,0-13.7-4.8-13.7-10.8v-25.5c-10.5-5.1-17.8-15.8-17.8-28.4c0-17.4,14.1-31.5,31.5-31.5    c17.4,0,31.5,14.1,31.5,31.5C294.8,369.2,287.5,380,276.9,385.1z"/><path class="st1" d="M182.1,192.1c0-33.9,27.5-61.4,61.4-61.4h39.6c33.9,0,61.4,27.5,61.4,61.4v43H388v-56c0-46.4-37.6-84-84-84    h-81.4c-46.4,0-84,37.6-84,84v56h43.5V192.1z"/></g></g><path class="st2" d="M419.2,318.8v-38.1c0-20.3-17.5-36.8-39-36.8H263.3v81.2c17.4,0,31.5,14.1,31.5,31.5c0,12.5-7.3,23.3-17.9,28.4  v25.5c0,6-6.1,10.8-13.6,10.8v65.5h116.9c21.5,0,39-16.5,39-36.8v-11.6h-51v-20.4h51v-28h-51v-20.4h51v-30.5h-51v-20.4H419.2z"/><path class="st2" d="M304,95.1h-40.7v35.6h19.8c33.9,0,61.4,27.5,61.4,61.4v43H388v-56C388,132.7,350.4,95.1,304,95.1z"/></svg>