<?xml version="1.0" ?><!DOCTYPE svg  PUBLIC '-//W3C//DTD SVG 1.1//EN'  'http://www.w3.org/Graphics/SVG/1.1/DTD/svg11.dtd'><svg enable-background="new 0 0 256 256" height="256px" id="Layer_1" version="1.1" viewBox="0 0 256 256" width="256px" xml:space="preserve" xmlns="http://www.w3.org/2000/svg" xmlns:xlink="http://www.w3.org/1999/xlink"><g><g><path d="M196.682,123.919c-2.331-2.568-5.581-4.01-9.653-4.18l-3.04,0.044     c0.331-22.222-2.472-57.594-21.336-77.159c-9.129-9.467-20.972-14.268-35.593-14.268h-0.003     c-13.818,0.085-25.065,4.585-33.423,13.376c-15.605,16.41-17.779,44.737-16.854,65.615l0.19,4.373h27.327l-0.157-4.725     c-0.052-1.715-0.066-3.471-0.062-5.234l0.01-2.957l0.161-3.189c1.246-24.714,9.378-37.249,24.294-37.249     c6.391,0.029,11.549,2.194,15.769,6.62c11.68,12.248,13.237,38.231,12.867,55.165l-85.614,1.17     c-2.413,0.031-5.909,0.38-8.44,3.019c-2.807,2.921-3.279,7.288-3.122,12.951c0.249,8.999,4.679,87.768,4.872,91.117l0.239,4.318     h135.481l-0.003-97.048C200.627,134.959,200.84,128.493,196.682,123.919z" fill="#C3C6C9"/><path d="M122.505,27.847c-41.551,0.254-47.103,43.294-45.735,74.216h18.224c-0.059-1.773-0.072-3.581-0.065-5.395     h-3.427v-6.368h3.6c1.053-20.867,7.443-41.689,28.885-41.591c42.915,0.199,31.99,84.445,31.99,84.445l17.684,0.795     C173.66,133.95,187.366,27.45,122.505,27.847z" fill="#C3C6C9"/><path d="M87.193,99.616c-0.771-15.095,0.039-35.238,7.643-49.199c11.594-21.275,29.606-21.273,32.626-21.082     c-2.922-0.487-23.478-2.61-39.204,19.599c-9.056,12.79-9.847,34.533-8.896,50.681H87.193z" fill="#EEEFEF"/><path d="M59.994,132.083c-0.249-9.034,1.43-11.201,7.053-11.272c4.679-0.062,87.736-1.201,115.466-1.58     c9.496,0.411,8.932,11.125,8.932,11.125v92.716H64.857C64.857,223.071,60.247,141.118,59.994,132.083z" fill="#FBB220"/><path d="M192.104,118.837c-2.331-2.567-5.581-4.01-9.653-4.18l-3.04,0.044     c0.331-22.222-2.472-57.594-21.336-77.159c-9.129-9.468-20.972-14.268-35.593-14.268h-0.003     c-13.818,0.084-25.064,4.584-33.423,13.375c-15.605,16.41-17.779,44.738-16.854,65.615l0.19,4.373h27.327l-0.157-4.725     c-0.052-1.715-0.065-3.47-0.062-5.234l0.01-2.957l0.161-3.188c1.246-24.716,9.378-37.25,24.294-37.25     c6.391,0.029,11.549,2.195,15.769,6.62c11.68,12.248,13.237,38.23,12.867,55.165l-85.614,1.17     c-2.413,0.031-5.909,0.38-8.44,3.019c-2.807,2.92-3.279,7.287-3.122,12.95c0.249,8.999,4.679,87.769,4.873,91.117l0.239,4.319     h135.481l-0.003-97.048C196.049,129.876,196.262,123.41,192.104,118.837z M191.445,130.355v92.716H64.857     c0,0-4.61-81.953-4.863-90.988c-0.249-9.034,1.43-11.201,7.053-11.272c3.63-0.053,54.434-0.745,89.982-1.232     c1.023-23.83-1.03-70.722-33.042-70.87c-21.441-0.098-27.832,20.724-28.885,41.591h-3.6v6.368h3.427     c-0.007,1.813,0.007,3.622,0.065,5.395H76.77c-1.367-30.922,4.184-73.962,45.735-74.216c49.795-0.307,53.277,62.346,52.214,91.49     c2.902-0.041,5.548-0.076,7.794-0.107C192.009,119.641,191.445,130.355,191.445,130.355z" fill="#424142"/><path d="M134.204,175.951c4.659-2.175,7.886-6.614,7.886-11.803c0-5.9-4.158-10.835-9.863-12.549     c1.656-8.315,3.554-16.93,5.715-25.545c-5.876,0-58.913-0.232-66.193,0.607c-7.279,0.839-6.574,13.291-6.574,13.291l3.358,77.67     h53.877c0,0,0.551-6.171,1.803-16.224h17.877L134.204,175.951z" fill="#FFD65F"/><path d="M138.723,163.871c0-5.878-4.758-10.638-10.637-10.638c-5.873,0-10.634,4.76-10.634,10.638     c0,4.743,3.128,8.717,7.42,10.084l-8.673,25.125h20.943l-7.453-24.733C134.798,173.566,138.723,169.195,138.723,163.871z" fill="#424142"/></g></g></svg>