<?xml version="1.0" ?><svg id="Layer_1" style="enable-background:new 0 0 24 24;" version="1.1" viewBox="0 0 24 24" xml:space="preserve" xmlns="http://www.w3.org/2000/svg" xmlns:xlink="http://www.w3.org/1999/xlink"><g><path d="M12,23H0.5c-0.202,0-0.385-0.122-0.462-0.309c-0.078-0.187-0.035-0.402,0.108-0.545l2.867-2.867   C1.066,17.264,0,14.698,0,12C0,5.935,5.383,1,12,1s12,4.935,12,11S18.617,23,12,23z" style="fill:#303C42;"/><path d="M1.707,22H12c6.065,0,11-4.486,11-10S18.065,2,12,2S1,6.486,1,12c0,2.584,1.089,5.041,3.066,6.915   c0.098,0.093,0.154,0.221,0.156,0.356c0.002,0.135-0.051,0.265-0.146,0.36L1.707,22z" style="fill:#E6E6E6;"/><path d="M1.707,22h1l1.869-1.869c0.095-0.095,0.148-0.225,0.146-0.36   c-0.002-0.135-0.058-0.263-0.156-0.356C2.589,17.541,1.5,15.084,1.5,12.5c0-5.514,4.935-10,11-10c3.033,0,5.782,1.121,7.774,2.932   C18.256,3.334,15.299,2,12,2C5.935,2,1,6.486,1,12c0,2.584,1.089,5.041,3.066,6.915c0.098,0.093,0.154,0.221,0.156,0.356   c0.002,0.135-0.051,0.265-0.146,0.36L1.707,22z" style="opacity:0.2;fill:#FFFFFF;"/><circle cx="12" cy="12" r="1" style="fill:#303C42;"/><circle cx="7" cy="12" r="1" style="fill:#303C42;"/><circle cx="17" cy="12" r="1" style="fill:#303C42;"/><linearGradient gradientUnits="userSpaceOnUse" id="SVGID_1_" x1="0.5004" x2="21.9392" y1="8.6747" y2="18.6718"><stop offset="0" style="stop-color:#FFFFFF;stop-opacity:0.2"/><stop offset="1" style="stop-color:#FFFFFF;stop-opacity:0"/></linearGradient><path d="M12,23H0.5c-0.202,0-0.385-0.122-0.462-0.309c-0.078-0.187-0.035-0.402,0.108-0.545   l2.867-2.867C1.066,17.264,0,14.698,0,12C0,5.935,5.383,1,12,1s12,4.935,12,11S18.617,23,12,23z" style="fill:url(#SVGID_1_);"/></g><g/><g/><g/><g/><g/><g/><g/><g/><g/><g/><g/><g/><g/><g/><g/></svg>