<?xml version="1.0" ?><!DOCTYPE svg  PUBLIC '-//W3C//DTD SVG 1.1//EN'  'http://www.w3.org/Graphics/SVG/1.1/DTD/svg11.dtd'><svg enable-background="new 0 0 512 512" height="512px" id="Layer_1" version="1.1" viewBox="0 0 512 512" width="512px" xml:space="preserve" xmlns="http://www.w3.org/2000/svg" xmlns:xlink="http://www.w3.org/1999/xlink"><g><path d="M213.787,329.754c-4.286-2.598-8.308-5.321-12.075-8.151c-13.65,12.875-30.659,25.978-48.559,32.578   c6.677-9.191,12.49-20.742,17.389-34.576l3.078-8.692l-9.138-1.242c-36.389-4.945-69.262-16.85-92.566-33.521   c-16.011-11.455-35.097-30.534-35.097-56.375c0-23.923,16.816-46.739,47.352-64.243c31.849-18.257,74.355-28.312,119.689-28.312   c41.382,0,80.404,8.384,111.119,23.733c6.793-0.483,13.676-0.728,20.617-0.728c2.592,0,5.175,0.038,7.75,0.105   c-3.869-2.706-7.984-5.313-12.342-7.812c-34.083-19.539-79.236-30.299-127.143-30.299c-47.91,0-93.065,10.76-127.149,30.299   c-35.397,20.292-54.892,47.728-54.892,77.256c0,48.51,53.515,90.219,131.302,103.338c-5.718,13.65-14.418,28.77-26.765,36.615   l-21.704,13.793l25.814,0.037c0.002,0-0.001,0,0.001,0c31.737,0,62.379-22.491,84.009-43.403   C214.251,330.019,214.012,329.891,213.787,329.754z" fill="#9DC14D"/><path clip-rule="evenodd" d="M492.498,255.167c0-49.675-70.247-89.943-156.901-89.943   c-86.647,0-156.895,40.268-156.895,89.943c0,47.836,65.167,86.938,147.385,89.76c19.188,19.598,47.18,41.781,75.565,41.74   c-14.732-9.362-24.119-28.109-29.749-44.008C441.045,333.262,492.498,297.67,492.498,255.167z M267.961,257.945   c-4.97,0-9-4.029-9-9c0-4.97,4.03-9,9-9c4.971,0,9,4.03,9,9C276.961,253.916,272.931,257.945,267.961,257.945z M358.043,279.849   l-20.083-13.896l-20.083,13.896l7.01-23.394l-19.422-14.806l24.415-0.562l8.079-23.047l8.079,23.047l24.415,0.562l-19.422,14.806   L358.043,279.849z M407.961,257.945c-4.97,0-9-4.029-9-9c0-4.97,4.03-9,9-9c4.971,0,9,4.03,9,9   C416.961,253.916,412.931,257.945,407.961,257.945z" fill="#4B4B4B" fill-rule="evenodd"/></g></svg>