<?xml version="1.0" ?><!DOCTYPE svg  PUBLIC '-//W3C//DTD SVG 1.1//EN'  'http://www.w3.org/Graphics/SVG/1.1/DTD/svg11.dtd'><svg enable-background="new 0 0 200 200" height="200px" id="Layer_1" version="1.1" viewBox="0 0 200 200" width="200px" xml:space="preserve" xmlns="http://www.w3.org/2000/svg" xmlns:xlink="http://www.w3.org/1999/xlink"><g><path d="M171.656,85.144H28.344V46.492c0-4.817-3.916-8.734-8.731-8.734v-5.822c8.025,0,14.553,6.53,14.553,14.556   v32.83h131.668v-32.83c0-8.026,6.528-14.556,14.554-14.556v5.822c-4.815,0-8.731,3.917-8.731,8.734V85.144z" fill="#3F4A5A"/><path d="M180.388,200c-8.025,0-14.554-6.529-14.554-14.557v-32.832H34.166v32.832   c0,8.027-6.528,14.557-14.553,14.557v-5.822c4.816,0,8.731-3.918,8.731-8.734v-38.654h143.313v38.654   c0,4.816,3.916,8.734,8.731,8.734V200z" fill="#3F4A5A"/><rect fill="#3F4A5A" height="5.823" width="160.775" x="19.612" y="113.055"/><path d="M52.469,59.362c-6.731,14.229-10.69,31.625-10.69,50.394c0,48.231,26.059,87.333,58.222,87.333V82.394   C81.138,82.394,64.206,73.519,52.469,59.362z" fill="#F67656"/><path d="M147.531,59.362c6.729,14.229,10.69,31.625,10.69,50.394c0,48.231-26.06,87.333-58.222,87.333V82.394   C118.861,82.394,135.794,73.519,147.531,59.362z" fill="#E66847"/><path d="M147.531,59.362C135.794,73.519,118.861,82.394,100,82.394c-18.862,0-35.794-8.875-47.531-23.031   C62.994,37.026,80.347,22.425,100,22.425C119.656,22.425,137.005,37.026,147.531,59.362z" fill="#3F4A5A"/><g><path d="M90.88,46.492c0,3.854-3.127,6.987-6.986,6.987s-6.986-3.133-6.986-6.987c0-3.858,3.126-6.987,6.986-6.987    S90.88,42.634,90.88,46.492z" fill="#FFFFFF"/><path d="M123.092,46.492c0,3.854-3.123,6.987-6.985,6.987c-3.856,0-6.987-3.133-6.987-6.987    c0-3.858,3.131-6.987,6.987-6.987C119.969,39.505,123.092,42.634,123.092,46.492z" fill="#FFFFFF"/></g><g><path d="M119.018,28.142h-5.824C113.193,12.625,125.818,0,141.336,0v5.822    C129.029,5.822,119.018,15.834,119.018,28.142z" fill="#3F4A5A"/><path d="M86.803,28.142h-5.822c0-12.308-10.011-22.32-22.317-22.32V0C74.181,0,86.803,12.625,86.803,28.142z" fill="#3F4A5A"/></g></g></svg>