<?xml version="1.0" ?><!DOCTYPE svg  PUBLIC '-//W3C//DTD SVG 1.1//EN'  'http://www.w3.org/Graphics/SVG/1.1/DTD/svg11.dtd'><svg enable-background="new 0 0 256 256" height="256px" id="Layer_1" version="1.1" viewBox="0 0 256 256" width="256px" xml:space="preserve" xmlns="http://www.w3.org/2000/svg" xmlns:xlink="http://www.w3.org/1999/xlink"><g><g opacity="0.3"><path d="M104.857,194.832c-42.642,0-77.333-34.691-77.333-77.333s34.691-77.334,77.333-77.334    c42.641,0,77.334,34.692,77.334,77.334S147.498,194.832,104.857,194.832z M104.857,61.165c-31.062,0-56.333,25.271-56.333,56.334    c0,31.062,25.271,56.333,56.333,56.333c31.063,0,56.334-25.271,56.334-56.333C161.191,86.437,135.92,61.165,104.857,61.165z" fill="#58595B"/></g><path d="M242.667,194.03c2.195-5.106,1.741-10.19-1.323-11.958l-55.68-32.148l-7.649,14.59   l-5.493,8.176l55.68,32.146c3.479,2.01,8.986-1.016,12.299-6.756l1.145-1.979c0.283-0.49,0.625-1.195,0.887-1.761   c0.003-0.003,0.007-0.006,0.01-0.009c0.021-0.048,0.039-0.096,0.06-0.144c0.025-0.054,0.055-0.117,0.077-0.167   C242.674,194.024,242.671,194.027,242.667,194.03z" fill="#58595B" opacity="0.3"/><g><path d="M93.857,187.832c-42.642,0-77.333-34.691-77.333-77.333s34.691-77.334,77.333-77.334    c42.641,0,77.334,34.692,77.334,77.334S136.498,187.832,93.857,187.832z M93.857,54.165c-31.062,0-56.333,25.271-56.333,56.334    c0,31.062,25.271,56.333,56.333,56.333c31.063,0,56.334-25.271,56.334-56.333C150.191,79.437,124.92,54.165,93.857,54.165z" fill="#58595B"/></g><path d="M230.667,187.03c2.195-5.106,1.741-10.19-1.323-11.958l-55.68-32.148c-0.549,1.016-2.014,4.77-3.191,6.639   c-0.592,0.938-1.447,3.426-4.535,8.098l0.003,0.002c-1.1,1.7-3.529,5.419-5.419,8.027l55.68,32.146   c3.479,2.01,8.986-1.016,12.299-6.756l1.145-1.979c0.283-0.49,0.625-1.195,0.887-1.761c0.003-0.003,0.007-0.006,0.01-0.009   c0.021-0.048,0.039-0.096,0.06-0.144c0.025-0.054,0.055-0.117,0.077-0.167C230.674,187.024,230.671,187.027,230.667,187.03z" fill="#58595B"/><g><path d="M68.037,129.221c-6.96-12.777-2.354-29.322,6.987-39.895c3.458-3.914-2.091-9.811-5.561-5.884    c-11.614,13.146-17.217,33.455-8.216,49.978C63.779,138.066,70.575,133.877,68.037,129.221L68.037,129.221z" fill="#727172"/></g></g></svg>